<svg class="ic" xmlns="http://www.w3.org/2000/svg" viewBox="0 0 16 16" aria-hidden="true"><path d="M.5 6a.5.5 0 0 0-.488.608l1.652 7.434A2.5 2.5 0 0 0 4.104 16h5.792a2.5 2.5 0 0 0 2.44-1.958l.131-.59a3 3 0 0 0 1.3-5.854l.221-.99A.5.5 0 0 0 13.5 6zM13 12.5a2.006 2.006 0 0 1-.317-.025l.703-3.159A2 2 0 0 1 13 12.5"/><path d="M2.64 1.987c.352-.311.426-.9.083-1.212C2.398.453 1.5.5 1.5.5s.033.657.5 1.075c.352.312.64.412.64.412zm2.5 0c.352-.311.426-.9.083-1.212C4.898.453 4 .5 4 .5s.033.657.5 1.075c.352.312.64.412.64.412zm2.5 0c.352-.311.426-.9.083-1.212C7.398.453 6.5.5 6.5.5s.033.657.5 1.075c.352.312.64.412.64.412z"/></svg>
